<?xml version="1.0" standalone="no"?>
<!DOCTYPE svg PUBLIC "-//W3C//DTD SVG 20010904//EN"
 "http://www.w3.org/TR/2001/REC-SVG-20010904/DTD/svg10.dtd">
<svg version="1.0" xmlns="http://www.w3.org/2000/svg"
 width="200.000000pt" height="200.000000pt" viewBox="0 0 200.000000 200.000000"
 preserveAspectRatio="xMidYMid meet">
<metadata>
Created by potrace 1.14, written by Peter Selinger 2001-2017
</metadata>
<g transform="translate(0.000000,200.000000) scale(0.100000,-0.100000)"
fill="#000000" stroke="none">
<path d="M919 1575 c0 -5 -1 -43 -2 -83 l-2 -72 35 -1 c72 -3 121 -1 126 4 5
5 8 77 5 137 -1 24 -3 25 -81 25 -46 0 -80 -4 -81 -10z"/>
<path d="M331 1256 c-1 -44 -3 -82 -6 -85 -3 -2 -39 -4 -80 -3 l-75 2 -1 -83
c-1 -111 -1 -309 0 -324 1 -9 24 -13 81 -13 l80 0 1 -67 c1 -38 2 -75 3 -83 1
-13 83 -15 669 -16 l668 -1 -1 26 c-1 14 -2 52 -1 84 l1 57 80 0 c69 0 80 2
81 18 1 18 0 275 0 355 l-1 48 -75 -2 c-41 -1 -78 1 -81 4 -4 3 -6 40 -5 81 1
55 -2 76 -11 77 -7 0 -308 1 -669 2 l-657 2 -1 -79z m1169 -297 l0 -209 -500
0 -500 0 0 209 0 209 500 0 500 -1 0 -208z"/>
<path d="M744 1072 c-45 -23 -70 -58 -72 -102 -10 -164 212 -184 243 -22 15
81 -97 162 -171 124z"/>
<path d="M1183 1078 c-48 -10 -88 -53 -97 -103 -6 -34 28 -115 49 -115 7 0 15
-4 17 -10 4 -14 68 -20 98 -8 56 21 92 90 77 150 -7 25 -66 92 -75 83 -3 -3
-10 -1 -16 3 -6 5 -30 5 -53 0z"/>
</g>
</svg>
